<?xml version="1.0" encoding="UTF-8"?>
<svg version="1.1" xmlns="http://www.w3.org/2000/svg" width="2000" height="2000">
<path d="M0 0 C660 0 1320 0 2000 0 C2000 660 2000 1320 2000 2000 C1340 2000 680 2000 0 2000 C0 1340 0 680 0 0 Z " fill="#F5F3EF" transform="translate(0,0)"/>
<path d="M0 0 C2.22432007 0.01068334 4.44782389 0.00005277 6.67211914 -0.01269531 C20.39006003 -0.02828292 34.11500008 0.77865808 47.23657227 5.07324219 C48.07849121 5.3389502 48.92041016 5.6046582 49.7878418 5.87841797 C80.24420922 15.66733698 101.25322469 35.37225859 123.36157227 57.63574219 C124.61328618 58.8924909 125.86523833 60.14900238 127.11743164 61.40527344 C129.40527592 63.7011828 131.69176409 65.99842291 133.9765625 68.29736328 C149.15546565 83.56533691 166.18806855 100.23315084 189.14355469 100.64135742 C203.51940705 100.61022621 212.2978843 97.59879027 222.79516602 87.45214844 C239.92993443 69.09619385 246.20991121 40.72297914 247.48657227 16.32324219 C247.63094727 13.66261719 247.77532227 11.00199219 247.92407227 8.26074219 C258.15407227 8.26074219 268.38407227 8.26074219 278.92407227 8.26074219 C278.94734179 14.40906708 278.96715649 20.55723214 278.97900391 26.70556641 C278.98395575 28.78630091 278.990719 30.86703209 278.99951172 32.94775391 C279.08219573 53.05455902 278.38693805 73.04338406 276.61157227 93.07324219 C276.51545151 94.16952942 276.51545151 94.16952942 276.41738892 95.28796387 C271.96084006 145.74185948 264.50617389 197.32422235 241.92407227 243.26074219 C241.5844043 243.96312012 241.24473633 244.66549805 240.89477539 245.38916016 C233.373464 260.79944481 223.89994178 274.94270497 211.92407227 287.26074219 C211.18157227 288.06511719 210.43907227 288.86949219 209.67407227 289.69824219 C185.47357894 315.17244569 149.95447123 328.22089046 115.20849609 329.38525391 C64.39306138 330.50231142 26.8011835 317.07243814 -13.96655273 286.94897461 C-36.01238562 270.67211347 -59.385364 263.3518072 -86.82983398 266.72167969 C-104.96199218 270.8261629 -119.11650426 282.8478334 -129.07592773 298.13574219 C-136.63801435 310.90792785 -141.91962861 324.57827882 -144.67456055 339.15673828 C-145.06547457 341.20594575 -145.50295034 343.24117247 -145.94311523 345.28027344 C-148.15581519 356.44240579 -148.40308507 367.59117992 -148.65795898 378.92871094 C-148.69967869 380.61439173 -148.74187065 382.3000609 -148.7845459 383.98571777 C-148.88711592 388.07727903 -148.98330212 392.16894422 -149.07592773 396.26074219 C-148.02025604 396.25408035 -146.96458435 396.24741852 -145.87692261 396.24055481 C-135.73465465 396.17869024 -125.59242678 396.13427956 -115.4500103 396.10530567 C-110.24059834 396.08990749 -105.03134318 396.06916864 -99.82202148 396.03442383 C-78.87566059 395.89864942 -58.01455279 395.92505862 -37.12280273 397.59667969 C-36.36584988 397.65607538 -35.60889702 397.71547108 -34.8290062 397.77666664 C-12.45444565 399.58582303 9.68506426 403.94160163 30.92407227 411.26074219 C31.62483887 411.49760742 32.32560547 411.73447266 33.04760742 411.97851562 C59.66345987 421.07294095 82.67840035 435.87925299 102.92407227 455.26074219 C103.48239746 455.78651855 104.04072266 456.31229492 104.6159668 456.85400391 C144.15668036 494.2096599 162.61239432 548.40506501 175.13232422 600.04125977 C177.24001531 608.70503075 179.71212485 617.25661773 182.21411133 625.81347656 C182.86825464 628.06833646 183.50512033 630.3271344 184.13500977 632.58886719 C192.95895111 663.97852833 204.68816614 695.38680887 233.92407227 713.26074219 C245.193853 719.45952151 255.57303153 723.65836824 268.54907227 723.63574219 C269.42136475 723.63558105 270.29365723 723.63541992 271.19238281 723.63525391 C278.99374518 723.49907946 285.55867023 721.85139707 292.92407227 719.26074219 C295.23407227 718.60074219 297.54407227 717.94074219 299.92407227 717.26074219 C299.92407227 482.96074219 299.92407227 248.66074219 299.92407227 7.26074219 C428.61709552 7.26074219 428.61709552 7.26074219 484.92407227 25.26074219 C485.74343262 25.51968262 486.56279297 25.77862305 487.40698242 26.04541016 C513.03531503 34.24310074 537.56502578 46.9008911 558.92407227 63.26074219 C559.79104736 63.91574707 559.79104736 63.91574707 560.67553711 64.58398438 C568.21258588 70.29069506 575.34616613 76.30208224 582.24438477 82.76464844 C584.51517677 84.8798614 586.81936269 86.92795635 589.17407227 88.94824219 C595.99238732 94.8772118 602.05464986 101.40742816 607.92407227 108.26074219 C608.81787925 109.27960718 609.71247289 110.29778237 610.60766602 111.31542969 C618.17964783 119.96912319 625.18490649 128.94641448 631.92407227 138.26074219 C632.76373535 139.41751465 632.76373535 139.41751465 633.62036133 140.59765625 C641.88372118 152.03532742 649.46173964 163.7433329 656.56420898 175.93359375 C657.81815615 178.07948681 659.08760435 180.2149746 660.36547852 182.34667969 C667.1897473 193.76496302 673.60148192 205.41258379 680.0383606 217.05183411 C683.33394949 223.00796483 686.65770373 228.94816597 689.98657227 234.88574219 C690.55988281 235.90861328 691.13319336 236.93148437 691.72387695 237.98535156 C692.87917814 240.04629965 694.03461396 242.10717226 695.19018555 244.16796875 C698.10346366 249.36444962 701.01362543 254.56267522 703.92407227 259.76074219 C707.46991608 266.0933518 711.01628228 272.42566663 714.56469727 278.75683594 C719.69808813 287.91728342 724.83062452 297.0780106 729.92407227 306.26074219 C738.33598533 321.42342878 746.81435153 336.54893124 755.36157227 351.63574219 C760.74168634 361.13339962 766.04862846 370.6704919 771.34008789 380.21777344 C775.31183911 387.37753873 779.32012233 394.51512214 783.36157227 401.63574219 C790.30310604 413.87619752 797.08879809 426.20134597 803.87133789 438.53027344 C806.90543828 444.04511656 809.94445927 449.55724525 812.98449707 455.06881714 C813.65300169 456.28092457 814.32137717 457.49310323 814.98962402 458.70535278 C818.55790342 465.17832117 822.13479811 471.64616951 825.73657227 478.10058594 C832.77945526 490.72312123 839.71883385 503.39190599 846.5168457 516.14746094 C849.74786594 522.20752398 853.00600469 528.2494734 856.32421875 534.26220703 C862.93558007 546.2506565 869.19412396 558.41187194 875.42895508 570.59887695 C876.19940339 572.10468539 876.9699101 573.61046395 877.74047852 575.11621094 C878.11236298 575.84290482 878.48424744 576.56959869 878.86740112 577.3183136 C881.52078023 582.49481827 884.23763005 587.6343855 886.98657227 592.76074219 C891.75349334 601.71027263 896.1722982 610.8333303 900.61157227 619.94824219 C901.15251022 621.05570801 901.15251022 621.05570801 901.70437622 622.18554688 C906.70527636 632.43648608 911.43154797 642.77700519 915.92407227 653.26074219 C915.35925326 640.65895047 913.9761751 628.19744824 912.44995117 615.68017578 C912.05070778 612.39918293 911.66072888 609.11718219 911.27172852 605.83496094 C909.95373886 594.84405074 908.45810808 583.92180844 906.56274414 573.015625 C905.90749658 569.16329031 905.37277472 565.31449871 904.90014648 561.43652344 C898.0494899 505.33300759 882.27284766 448.13964116 859.92407227 396.26074219 C859.29299561 394.79435303 859.29299561 394.79435303 858.64916992 393.29833984 C842.58537402 356.37153055 821.5139488 322.8016594 796.53637695 291.30224609 C795.0305095 289.39551325 793.54037049 287.47788223 792.05688477 285.55371094 C785.80849132 277.46880781 779.21452918 269.73656705 772.48657227 262.04833984 C764.08508314 252.43651119 756.15070158 242.5490533 748.48657227 232.33789062 C747.03756689 230.4116191 745.57589006 228.4956918 744.11157227 226.58105469 C694.81084856 161.52369498 687.92407227 86.62137257 687.92407227 7.26074219 C776.36407227 7.26074219 864.80407227 7.26074219 955.92407227 7.26074219 C955.92407227 281.49074219 955.92407227 555.72074219 955.92407227 838.26074219 C945.69407227 838.26074219 935.46407227 838.26074219 924.92407227 838.26074219 C923.28476255 834.98212276 923.67169119 831.30966989 923.54907227 827.69824219 C923.1355169 818.35029694 921.90263755 809.39876604 919.92407227 800.26074219 C919.65852539 799.00777344 919.39297852 797.75480469 919.11938477 796.46386719 C912.85155673 770.17226995 896.65658073 747.78370939 873.72485352 733.53027344 C872.4608417 732.76890206 871.19395591 732.01227913 869.92407227 731.26074219 C869.03147705 730.729729 869.03147705 730.729729 868.12084961 730.18798828 C842.53653512 715.22225285 812.11578754 706.37364316 783.5769043 698.96435547 C725.08334468 683.4500504 656.56569003 663.40268883 613.47875977 617.85058594 C611.79800255 616.13182165 610.0169075 614.61633917 608.17407227 613.07324219 C586.12600379 593.9507828 571.24628978 568.24220599 556.92407227 543.26074219 C555.93764826 541.5449236 554.95122409 539.82910511 553.96478271 538.11329651 C546.57927146 525.26020726 539.28713692 512.3576369 532.0703125 499.40893555 C528.12525176 492.35126834 524.08251216 485.35676097 519.98657227 478.38574219 C514.30282674 468.70980405 508.81616966 458.93518279 503.38696289 449.11450195 C498.19511211 439.72752253 492.89967696 430.4044205 487.55639648 421.10302734 C484.38186381 415.57537113 481.21438659 410.04368045 478.04907227 404.51074219 C477.53973648 403.62076035 477.53973648 403.62076035 477.02011108 402.71279907 C472.22986352 394.33956284 467.49479487 385.93746719 462.79907227 377.51074219 C458.28636874 369.41350244 453.6826847 361.37794922 448.98657227 353.38574219 C443.34445799 343.78355611 437.91004758 334.07853892 432.52978516 324.32763672 C428.42680205 316.91158367 424.22161247 309.56559044 419.92407227 302.26074219 C414.30010865 292.70127356 408.88752026 283.03779535 403.52954102 273.32714844 C399.42660111 265.91127569 395.22141525 258.56549752 390.92407227 251.26074219 C385.25843577 241.62755742 379.79360312 231.89444833 374.38671875 222.11401367 C369.20790873 212.75074129 363.92599455 203.45112512 358.59594727 194.17333984 C355.57541088 188.91121966 352.56423264 183.64374816 349.55319214 178.37619019 C348.51666499 176.56337238 347.47933292 174.75101714 346.44189453 172.9387207 C342.89435771 166.73530245 339.37202165 160.52012775 335.92407227 154.26074219 C334.7782178 182.05832279 339.46483338 210.43461102 342.66369629 238.01373291 C342.92524857 240.27089349 343.18500925 242.52825531 343.44458008 244.78564453 C343.86981359 248.47510508 344.3017656 252.16372583 344.73880005 255.85180664 C344.97562884 257.85564833 345.20861089 259.85994354 345.44140625 261.86425781 C346.49689647 270.6341648 347.92494826 279.28981876 349.5116272 287.97457886 C350.08600819 291.15834531 350.63186341 294.34681041 351.17926025 297.53530884 C357.46645843 334.05815062 365.15027518 370.07963447 376.92407227 405.26074219 C377.315625 406.4540918 377.70717773 407.64744141 378.1105957 408.87695312 C397.35349186 467.44296344 426.25095405 520.54087204 466.42016602 567.32714844 C468.75651079 570.06442602 471.03554658 572.83817233 473.29907227 575.63574219 C476.92134122 580.08892589 480.65315689 584.43386199 484.42407227 588.76074219 C489.71013212 594.83558543 494.90066239 600.9652753 499.92407227 607.26074219 C500.42487305 607.88223145 500.92567383 608.5037207 501.44165039 609.14404297 C533.80722149 649.40994681 552.98722265 691.53026971 561.92407227 742.26074219 C562.08149902 743.1137793 562.23892578 743.96681641 562.40112305 744.84570312 C564.63362257 757.09298914 565.43314176 769.41153621 566.11157227 781.82324219 C566.15454437 782.56746429 566.19751648 783.3116864 566.24179077 784.07846069 C567.2552812 802.14702876 566.92407227 820.13757023 566.92407227 838.26074219 C478.81407227 838.26074219 390.70407227 838.26074219 299.92407227 838.26074219 C299.59407227 815.16074219 299.26407227 792.06074219 298.92407227 768.26074219 C292.32407227 773.21074219 285.72407227 778.16074219 278.92407227 783.26074219 C261.44032274 795.36487647 243.2294256 806.29897983 223.92407227 815.26074219 C223.16787598 815.61201172 222.41167969 815.96328125 221.63256836 816.32519531 C174.57476178 837.89930191 117.52538845 850.59398884 66.33959961 836.90576172 C64.16337367 836.32464297 61.98576469 835.8081725 59.78735352 835.31933594 C35.87980264 829.65367829 13.5667029 817.78998751 -6.07592773 803.26074219 C-6.66680176 802.82681152 -7.25767578 802.39288086 -7.86645508 801.94580078 C-17.34075414 794.92653045 -25.92476823 787.04785309 -34.40063477 778.86425781 C-35.73879445 777.58343111 -37.10421383 776.33110467 -38.47827148 775.08886719 C-63.3228458 752.12414819 -73.90060291 714.76923286 -75.48608398 682.16308594 C-76.3046314 654.16324587 -72.14784119 625.78827315 -65.83862305 598.55664062 C-64.23180724 591.61297437 -62.69065228 584.65427863 -61.13842773 577.69824219 C-60.96715363 576.93212616 -60.79587952 576.16601013 -60.61941528 575.37667847 C-45.09217038 515.23326794 -45.09217038 515.23326794 -58.31030273 456.95214844 C-58.89295898 456.06398438 -59.47561523 455.17582031 -60.07592773 454.26074219 C-60.51420898 453.58914063 -60.95249023 452.91753906 -61.40405273 452.22558594 C-73.53443675 436.18571068 -96.42572695 429.99180087 -115.33374023 427.31542969 C-126.5600818 425.87245087 -137.78246181 424.95328429 -149.07592773 424.26074219 C-149.06021729 425.39125 -149.04450684 426.52175781 -149.02832031 427.68652344 C-148.29980262 485.89758628 -151.93285549 543.76619509 -161.07592773 601.26074219 C-161.40819706 603.4143513 -161.74024485 605.56799461 -162.07202148 607.72167969 C-165.4856344 629.44418956 -169.96320261 650.9685996 -176.39086914 672.00732422 C-177.01639045 674.06490144 -177.61843805 676.12754696 -178.21264648 678.19433594 C-188.01242468 711.23850031 -202.33062485 744.27293844 -224.07592773 771.26074219 C-224.49310059 771.77942871 -224.91027344 772.29811523 -225.34008789 772.83251953 C-254.73843686 809.13659405 -295.29994834 832.0500504 -342.07592773 837.26074219 C-404.93727255 841.45149851 -468.07504591 838.26074219 -531.07592773 838.26074219 C-531.07592773 564.03074219 -531.07592773 289.80074219 -531.07592773 7.26074219 C-442.30592773 7.26074219 -353.53592773 7.26074219 -262.07592773 7.26074219 C-261.95493369 108.72993518 -261.95493369 108.72993518 -261.92944336 151.23144531 C-261.92357059 160.95808935 -261.91750939 170.68473324 -261.91113281 180.41137695 C-261.90994594 182.23975049 -261.90994594 182.23975049 -261.9087351 184.10506088 C-261.89572114 203.73062903 -261.87208859 223.35617056 -261.84446935 242.98172297 C-261.81631988 263.15371271 -261.7997314 283.3256886 -261.79366225 303.49769717 C-261.78956551 315.92423092 -261.77667178 328.35068941 -261.75217833 340.77719996 C-261.73620307 349.32235711 -261.73155375 357.86747589 -261.7354236 366.41264685 C-261.737327 371.32756268 -261.73460999 376.24234789 -261.71831131 381.15723991 C-261.52811528 441.55678006 -268.40767613 506.75413268 -311.79077148 552.81933594 C-313.72899127 554.89008358 -315.52990105 557.00609934 -317.32592773 559.19824219 C-326.85594471 570.08334316 -339.01644249 578.44305773 -351.07592773 586.26074219 C-351.64794922 586.63763184 -352.2199707 587.01452148 -352.80932617 587.40283203 C-374.42486257 601.53216653 -398.96338659 610.93430655 -422.87524414 620.36474609 C-438.47251965 626.54392328 -451.41738378 634.07835432 -464.07592773 645.26074219 C-464.75913086 645.86015625 -465.44233398 646.45957031 -466.14624023 647.07714844 C-486.07640191 665.75663195 -498.9729289 693.89136179 -500.20092773 721.02246094 C-500.63550672 741.80076879 -493.7027701 760.69445147 -479.48608398 776.00683594 C-470.58699873 784.32899508 -460.16696374 790.35039365 -449.07592773 795.26074219 C-447.9888855 795.74244873 -447.9888855 795.74244873 -446.87988281 796.23388672 C-440.16413646 799.0775824 -433.37115035 800.80810323 -426.26342773 802.38574219 C-424.634375 802.76279297 -424.634375 802.76279297 -422.97241211 803.14746094 C-419.6809938 803.89364598 -416.38288629 804.58702425 -413.07592773 805.26074219 C-412.14627197 805.46304443 -411.21661621 805.66534668 -410.25878906 805.8737793 C-399.56898071 807.88941754 -388.7054098 807.59706025 -377.8671875 807.57641602 C-374.41365701 807.57326521 -370.96099294 807.59674438 -367.50756836 807.62207031 C-351.36905291 807.66917843 -335.85834777 806.71343379 -320.45092773 801.51074219 C-319.67297852 801.25615234 -318.8950293 801.0015625 -318.09350586 800.73925781 C-298.27764007 794.08022399 -280.67320703 784.52899691 -265.27905273 770.27246094 C-263.07592773 768.26074219 -263.07592773 768.26074219 -260.01342773 765.88574219 C-255.45860258 761.8154729 -251.82957663 757.06466702 -248.07592773 752.26074219 C-247.31795898 751.29523437 -246.55999023 750.32972656 -245.77905273 749.33496094 C-240.35143328 742.26969768 -235.54418737 734.96648335 -231.07592773 727.26074219 C-230.12266602 725.62105469 -230.12266602 725.62105469 -229.15014648 723.94824219 C-223.18320095 713.36883875 -218.67044381 702.16397431 -214.14331055 690.91113281 C-213.27573302 688.75687351 -212.39523339 686.60906279 -211.50561523 684.46386719 C-208.26496433 676.433575 -206.00315395 668.20044998 -203.78320312 659.84521484 C-202.92546354 656.71092721 -202.00947995 653.59505735 -201.09936523 650.47558594 C-195.49226344 630.87236098 -192.38673596 610.69897149 -189.32592773 590.57324219 C-189.17731293 589.6 -189.02869812 588.62675781 -188.87557983 587.62402344 C-180.5392023 532.72652042 -178.97915977 477.31749524 -178.73217773 421.87402344 C-178.72593793 420.4828569 -178.72593793 420.4828569 -178.71957207 419.063586 C-178.65602317 404.56685132 -178.614468 390.07006128 -178.57592773 375.57324219 C-178.34095366 287.28465758 -178.34095366 287.28465758 -177.16967773 256.17871094 C-177.11199471 254.61153037 -177.11199471 254.61153037 -177.05314636 253.01268959 C-176.35094948 234.60748659 -174.95864408 216.23115706 -172.70092773 197.94824219 C-172.57572754 196.92738525 -172.45052734 195.90652832 -172.3215332 194.85473633 C-167.2202876 154.1904328 -159.36117025 114.78904293 -140.07592773 78.26074219 C-139.60050537 77.34977783 -139.60050537 77.34977783 -139.11547852 76.42041016 C-128.02623482 55.3629194 -111.27784675 36.90009026 -91.07592773 24.26074219 C-90.47377441 23.87869629 -89.87162109 23.49665039 -89.2512207 23.10302734 C-70.60849361 11.45315159 -50.63612863 5.77327314 -29.07592773 2.26074219 C-28.00044678 2.07382812 -26.92496582 1.88691406 -25.81689453 1.69433594 C-17.16644614 0.29828389 -8.73732106 -0.04964929 0 0 Z " fill="#000000" transform="translate(787.075927734375,467.7392578125)"/>
<path d="M0 0 C4.62 0 9.24 0 14 0 C14.33 7.59 14.66 15.18 15 23 C16.60448347 15.80570183 16.60448347 15.80570183 18.20092773 8.60961914 C18.40145752 7.71879639 18.6019873 6.82797363 18.80859375 5.91015625 C19.01282959 4.99371338 19.21706543 4.07727051 19.42749023 3.13305664 C20 1 20 1 21 0 C23.35313555 -0.07271741 25.70833668 -0.08370868 28.0625 -0.0625 C29.35285156 -0.05347656 30.64320313 -0.04445313 31.97265625 -0.03515625 C32.97167969 -0.02355469 33.97070312 -0.01195312 35 0 C33.88297333 8.58346807 32.13080524 16.75843382 29.8046875 25.078125 C27.03864799 38.55921075 31.49229828 47.96919311 35 62 C35.33 41.54 35.66 21.08 36 0 C63 0 63 0 69 5 C71.39451251 9.09206317 71.33400865 13.30453677 71.3125 17.9375 C71.32861328 18.62779297 71.34472656 19.31808594 71.36132812 20.02929688 C71.3658255 24.77402407 70.47066197 27.96638885 68 32 C67.01 32.99 67.01 32.99 66 34 C67.32 35.65 68.64 37.3 70 39 C70.495 45.435 70.495 45.435 71 52 C72.65 34.84 74.3 17.68 76 0 C84.25 0 92.5 0 101 0 C103.80250818 23.96144495 105.92547661 47.96627408 108 72 C103.38 72 98.76 72 94 72 C93.67 68.04 93.34 64.08 93 60 C90.03 60 87.06 60 84 60 C84 63.96 84 67.92 84 72 C74.76 72 65.52 72 56 72 C55.67 61.77 55.34 51.54 55 41 C53.35 40.34 51.7 39.68 50 39 C50 49.89 50 60.78 50 72 C40.76 72 31.52 72 22 72 C21.21625 68.926875 20.4325 65.85375 19.625 62.6875 C19.38217285 61.74350342 19.1393457 60.79950684 18.88916016 59.8269043 C18.69112793 59.04226807 18.4930957 58.25763184 18.2890625 57.44921875 C18.09006348 56.66893311 17.89106445 55.88864746 17.68603516 55.0847168 C16.64843044 50.41918812 15.85498597 45.70242282 15 41 C14.67 51.23 14.34 61.46 14 72 C9.38 72 4.76 72 0 72 C0 48.24 0 24.48 0 0 Z " fill="#232323" transform="translate(584,1343)"/>
<path d="M0 0 C4.2502579 2.50015171 6.9531181 5.40623621 9.1875 9.875 C9.30284596 11.46603314 9.356993 13.06170079 9.38037109 14.65673828 C9.39643402 15.65182404 9.41249695 16.64690979 9.42904663 17.67214966 C9.47355265 22.2400852 9.51458925 26.80787463 9.53759766 31.37597656 C9.55412608 33.78134863 9.58137448 36.18667222 9.61962891 38.59179688 C9.67456979 42.06406077 9.6963022 45.53517164 9.7109375 49.0078125 C9.73360687 50.07581085 9.75627625 51.1438092 9.77963257 52.24417114 C9.76078445 58.95003805 8.81286423 63.81527043 4.1875 68.875 C-0.48608516 72.31338133 -4.92473136 73.49357055 -10.7109375 73.1953125 C-16.40601232 72.32728994 -20.19956101 69.1904549 -23.8125 64.875 C-26.30110223 59.35512319 -26.11869201 53.93760549 -26.11328125 48 C-26.11970894 46.43596436 -26.11970894 46.43596436 -26.12626648 44.84033203 C-26.13199489 42.64160893 -26.13252105 40.44286689 -26.12817383 38.24414062 C-26.12501073 34.88638959 -26.1485032 31.52951744 -26.17382812 28.171875 C-26.176101 26.03125111 -26.17680467 23.89062485 -26.17578125 21.75 C-26.184991 20.74984863 -26.19420074 19.74969727 -26.20368958 18.71923828 C-26.16316747 12.5963061 -25.62099858 7.95410912 -21.3125 3.23046875 C-14.6229363 -1.97833215 -8.04167689 -2.37295384 0 0 Z " fill="#242424" transform="translate(1300.8125,1343.125)"/>
<path d="M0 0 C4.2502579 2.50015171 6.9531181 5.40623621 9.1875 9.875 C9.30284596 11.46603314 9.356993 13.06170079 9.38037109 14.65673828 C9.39643402 15.65182404 9.41249695 16.64690979 9.42904663 17.67214966 C9.47355265 22.2400852 9.51458925 26.80787463 9.53759766 31.37597656 C9.55412608 33.78134863 9.58137448 36.18667222 9.61962891 38.59179688 C9.67456979 42.06406077 9.6963022 45.53517164 9.7109375 49.0078125 C9.73360687 50.07581085 9.75627625 51.1438092 9.77963257 52.24417114 C9.76078445 58.95003805 8.81286423 63.81527043 4.1875 68.875 C-0.48608516 72.31338133 -4.92473136 73.49357055 -10.7109375 73.1953125 C-16.40601232 72.32728994 -20.19956101 69.1904549 -23.8125 64.875 C-26.30110223 59.35512319 -26.11869201 53.93760549 -26.11328125 48 C-26.11970894 46.43596436 -26.11970894 46.43596436 -26.12626648 44.84033203 C-26.13199489 42.64160893 -26.13252105 40.44286689 -26.12817383 38.24414062 C-26.12501073 34.88638959 -26.1485032 31.52951744 -26.17382812 28.171875 C-26.176101 26.03125111 -26.17680467 23.89062485 -26.17578125 21.75 C-26.184991 20.74984863 -26.19420074 19.74969727 -26.20368958 18.71923828 C-26.16316747 12.5963061 -25.62099858 7.95410912 -21.3125 3.23046875 C-14.6229363 -1.97833215 -8.04167689 -2.37295384 0 0 Z " fill="#242424" transform="translate(750.8125,1343.125)"/>
<path d="M0 0 C4.95 0 9.9 0 15 0 C16.65 8.58 18.3 17.16 20 26 C20.33 17.42 20.66 8.84 21 0 C25.62 0 30.24 0 35 0 C35 23.76 35 47.52 35 72 C30.38 72 25.76 72 21 72 C19.02 62.43 17.04 52.86 15 43 C14.67 52.57 14.34 62.14 14 72 C9.38 72 4.76 72 0 72 C0 48.24 0 24.48 0 0 Z " fill="#232323" transform="translate(1238,1343)"/>
<path d="M0 0 C8.25 0 16.5 0 25 0 C27.80250818 23.96144495 29.92547661 47.96627408 32 72 C27.38 72 22.76 72 18 72 C17.505 66.06 17.505 66.06 17 60 C14.03 60 11.06 60 8 60 C8 63.96 8 67.92 8 72 C3.05 72 -1.9 72 -7 72 C-7.09765625 65.06640625 -7.09765625 65.06640625 -7 63 C-6.505 62.505 -6.505 62.505 -6 62 C-5.72868744 60.07138391 -5.51978961 58.1339544 -5.33569336 56.19506836 C-5.15561989 54.33325172 -5.15561989 54.33325172 -4.97190857 52.43382263 C-4.8444587 51.06917187 -4.71710607 49.70451202 -4.58984375 48.33984375 C-4.45714085 46.95118039 -4.32404377 45.56255465 -4.19056702 44.17396545 C-3.83975109 40.51317443 -3.49431198 36.85189498 -3.14996338 33.19049072 C-2.79786244 29.4567642 -2.44071577 25.72352083 -2.08398438 21.99023438 C-1.38436362 14.66061993 -0.69088497 7.33044399 0 0 Z " fill="#242424" transform="translate(660,1343)"/>
<path d="M0 0 C8.25 0 16.5 0 25 0 C27.80250818 23.96144495 29.92547661 47.96627408 32 72 C27.38 72 22.76 72 18 72 C17.505 66.06 17.505 66.06 17 60 C14.03 60 11.06 60 8 60 C8 63.96 8 67.92 8 72 C3.38 72 -1.24 72 -6 72 C-6.16569735 63.73584482 -5.51438837 55.68026623 -4.6875 47.4609375 C-4.55255645 46.0852159 -4.41804249 44.70945209 -4.28393555 43.33364868 C-3.93309914 39.74617159 -3.57650404 36.1592905 -3.21862793 32.57250977 C-2.85314916 28.89894819 -2.49322819 25.2248424 -2.1328125 21.55078125 C-1.42725452 14.36664737 -0.71508619 7.1831929 0 0 Z " fill="#242424" transform="translate(1352,1343)"/>
<path d="M0 0 C4.62 0 9.24 0 14 0 C15.65 14.52 17.3 29.04 19 44 C20.32 29.48 21.64 14.96 23 0 C27.62 0 32.24 0 37 0 C37.24430086 8.00467039 36.29221617 15.73483008 35.25 23.66015625 C35.07014372 25.05970524 34.89079018 26.45931893 34.71191406 27.85899353 C34.24344129 31.51411711 33.76821582 35.16833082 33.29150391 38.8223877 C32.8047803 42.56269963 32.32455141 46.3038449 31.84375 50.04492188 C30.90213177 57.36410751 29.95276695 64.6822557 29 72 C22.4 72 15.8 72 9 72 C6.27658163 55.73556293 4.14269717 39.44186557 2.25 23.0625 C2.13749908 22.09291351 2.02499817 21.12332703 1.90908813 20.12435913 C1.58768723 17.34493071 1.26951184 14.56515953 0.953125 11.78515625 C0.85644028 10.94246185 0.75975555 10.09976746 0.66014099 9.23153687 C0.31268692 6.13780728 0 3.11593826 0 0 Z " fill="#252525" transform="translate(1310,1343)"/>
<path d="M0 0 C4.62 0 9.24 0 14 0 C15.32 5.94 16.64 11.88 18 18 C18.99 12.06 19.98 6.12 21 0 C25.95 0 30.9 0 36 0 C34.55507317 8.56064691 32.59805344 16.90638796 30.4375 25.3125 C29.80899349 27.76636352 29.18261367 30.22077295 28.55859375 32.67578125 C28.28329834 33.74739502 28.00800293 34.81900879 27.72436523 35.9230957 C26.49640899 41.13911612 25.86208322 46.13750334 25.68359375 51.4921875 C25.64169922 52.69101563 25.59980469 53.88984375 25.55664062 55.125 C25.51732422 56.3625 25.47800781 57.6 25.4375 58.875 C25.39431641 60.13570312 25.35113281 61.39640625 25.30664062 62.6953125 C25.20090956 65.79675708 25.09998412 68.89836483 25 72 C20.38 72 15.76 72 11 72 C10.99613281 69.72802734 10.99613281 69.72802734 10.9921875 67.41015625 C10.78501436 52.55117181 8.64841768 39.15185093 4.76220703 24.83398438 C3.63888702 20.6573352 2.62354107 16.45790504 1.625 12.25 C1.37399536 11.24066406 1.37399536 11.24066406 1.11791992 10.2109375 C0.24880471 6.60544178 0 3.78493774 0 0 Z " fill="#272727" transform="translate(690,1343)"/>
<path d="M0 0 C1.66611905 -0.042721 3.33382885 -0.04063832 5 0 C6.54501451 1.54501451 6.12719131 2.9866022 6.12939453 5.13671875 C6.13254669 6.01432861 6.13569885 6.89193848 6.13894653 7.79614258 C6.1369223 8.75029053 6.13489807 9.70443848 6.1328125 10.6875 C6.13376923 11.66033936 6.13472595 12.63317871 6.13571167 13.63549805 C6.13639358 15.696778 6.13453853 17.75806008 6.13037109 19.81933594 C6.125023 22.98637688 6.13031572 26.153276 6.13671875 29.3203125 C6.13605797 31.31770865 6.13477681 33.31510471 6.1328125 35.3125 C6.13483673 36.26664795 6.13686096 37.2207959 6.13894653 38.20385742 C6.13579437 39.08146729 6.13264221 39.95907715 6.12939453 40.86328125 C6.12859894 41.63969971 6.12780334 42.41611816 6.12698364 43.21606445 C6 45 6 45 5 46 C3.33382885 46.04063832 1.66611905 46.042721 0 46 C-0.90473699 43.28578902 -1.12629595 41.71478269 -1.12939453 38.92749023 C-1.13254669 38.11332138 -1.13569885 37.29915253 -1.13894653 36.46031189 C-1.1369223 35.5852449 -1.13489807 34.71017792 -1.1328125 33.80859375 C-1.13376923 32.9075441 -1.13472595 32.00649445 -1.13571167 31.07814026 C-1.13639198 29.17424449 -1.13454806 27.27034639 -1.13037109 25.36645508 C-1.12501453 22.44542257 -1.13032431 19.52454339 -1.13671875 16.60351562 C-1.13605806 14.75520799 -1.1347771 12.90690046 -1.1328125 11.05859375 C-1.13483673 10.18150253 -1.13686096 9.30441132 -1.13894653 8.40074158 C-1.11496256 2.22992511 -1.11496256 2.22992511 0 0 Z " fill="#EEECE8" transform="translate(1290,1356)"/>
<path d="M0 0 C1.66611905 -0.042721 3.33382885 -0.04063832 5 0 C6.54501451 1.54501451 6.12719131 2.9866022 6.12939453 5.13671875 C6.13254669 6.01432861 6.13569885 6.89193848 6.13894653 7.79614258 C6.1369223 8.75029053 6.13489807 9.70443848 6.1328125 10.6875 C6.13376923 11.66033936 6.13472595 12.63317871 6.13571167 13.63549805 C6.13639358 15.696778 6.13453853 17.75806008 6.13037109 19.81933594 C6.125023 22.98637688 6.13031572 26.153276 6.13671875 29.3203125 C6.13605797 31.31770865 6.13477681 33.31510471 6.1328125 35.3125 C6.13483673 36.26664795 6.13686096 37.2207959 6.13894653 38.20385742 C6.13579437 39.08146729 6.13264221 39.95907715 6.12939453 40.86328125 C6.12859894 41.63969971 6.12780334 42.41611816 6.12698364 43.21606445 C6 45 6 45 5 46 C3.33382885 46.04063832 1.66611905 46.042721 0 46 C-0.90473699 43.28578902 -1.12629595 41.71478269 -1.12939453 38.92749023 C-1.13254669 38.11332138 -1.13569885 37.29915253 -1.13894653 36.46031189 C-1.1369223 35.5852449 -1.13489807 34.71017792 -1.1328125 33.80859375 C-1.13376923 32.9075441 -1.13472595 32.00649445 -1.13571167 31.07814026 C-1.13639198 29.17424449 -1.13454806 27.27034639 -1.13037109 25.36645508 C-1.12501453 22.44542257 -1.13032431 19.52454339 -1.13671875 16.60351562 C-1.13605806 14.75520799 -1.1347771 12.90690046 -1.1328125 11.05859375 C-1.13483673 10.18150253 -1.13686096 9.30441132 -1.13894653 8.40074158 C-1.11496256 2.22992511 -1.11496256 2.22992511 0 0 Z " fill="#EEECE8" transform="translate(740,1356)"/>
<path d="M0 0 C0.33 0 0.66 0 1 0 C1 21.78 1 43.56 1 66 C-1.54061986 60.91876029 -2.74316313 55.80348334 -4.125 50.3125 C-4.40214844 49.26126953 -4.67929687 48.21003906 -4.96484375 47.12695312 C-8.05195943 34.90775386 -6.60961744 26.10913298 -3.5 13.9375 C-3.16179996 12.58161941 -2.82455269 11.22550081 -2.48828125 9.86914062 C-1.66816773 6.57697065 -0.83852609 3.28751928 0 0 Z " fill="#DFDDDA" transform="translate(619,1343)"/>
<path d="M0 0 C0.33 0 0.66 0 1 0 C2.15559181 5.38671473 2.5923401 10.76828381 3.0625 16.25 C3.15337891 17.24902344 3.24425781 18.24804688 3.33789062 19.27734375 C3.85370731 25.21117479 4.09267358 31.04417774 4 37 C2.02 37 0.04 37 -2 37 C-2.32074951 10.19959658 -2.32074951 10.19959658 0 0 Z " fill="#E5E3DF" transform="translate(1364,1355)"/>
<path d="M0 0 C0.33 0 0.66 0 1 0 C2.15559181 5.38671473 2.5923401 10.76828381 3.0625 16.25 C3.15337891 17.24902344 3.24425781 18.24804688 3.33789062 19.27734375 C3.85370731 25.21117479 4.09267358 31.04417774 4 37 C2.02 37 0.04 37 -2 37 C-2.32074951 10.19959658 -2.32074951 10.19959658 0 0 Z " fill="#E5E3DF" transform="translate(672,1355)"/>
<path d="M0 0 C1.65 0 3.3 0 5 0 C7 2 7 2 7.265625 4.05859375 C7.26046875 4.84363281 7.2553125 5.62867188 7.25 6.4375 C7.25515625 7.21996094 7.2603125 8.00242187 7.265625 8.80859375 C7 11 7 11 5 14 C3.35 14 1.7 14 0 14 C0 9.38 0 4.76 0 0 Z " fill="#DBD9D5" transform="translate(634,1356)"/>
<path d="M0 0 C0.33 0 0.66 0 1 0 C2.10228696 4.40914783 2.07654536 8.48382401 2 13 C1.01 13 0.02 13 -1 13 C-1.07654536 8.48382401 -1.10228696 4.40914783 0 0 Z " fill="#BCBBB8" transform="translate(1364,1355)"/>
<path d="M0 0 C0.33 0 0.66 0 1 0 C2.10228696 4.40914783 2.07654536 8.48382401 2 13 C1.01 13 0.02 13 -1 13 C-1.07654536 8.48382401 -1.10228696 4.40914783 0 0 Z " fill="#BCBBB8" transform="translate(672,1355)"/>
</svg>
